<svg viewBox="0 0 52 52" xml:space="preserve" xmlns="http://www.w3.org/2000/svg"><path d="M43.199 14.52c-6.04-1.33-11.51-4.6-15.81-9.46l-.64-.73a1 1 0 0 0-.74-.33h-.01c-.28 0-.55.11-.74.32l-.98 1.08c-4.09 4.49-9.22 7.59-14.85 8.97l-.66.16c-.43.1-.75.49-.76.94-.36 14.03 7.92 24.14 11.5 27.83 2.25 2.33 5.13 4.69 6.48 4.7h.03c1.52-.04 4.49-2.61 6.57-4.8 3.56-3.75 11.79-13.96 11.4-27.73-.01-.46-.34-.85-.79-.95zm-15.9 22.31c-.17.11-.36.17-.55.17a1.007 1.007 0 0 1-1-1V16c0-.34.17-.66.46-.84.28-.19.64-.21.95-.08l10 4.5c.4.18.63.59.59 1.02-.05.41-1.17 10.15-10.45 16.23z" fill="#ffffff" class="fill-000000"></path></svg>